STARTFONT 2.1
FONT -sun-timmons-medium-i-normal--24-240-75-75-p-125-adobe-fontspecific
SIZE 24 75 75
FONTBOUNDINGBOX 32 28 -6 -5

STARTPROPERTIES 28
FOUNDRY "sun"
FAMILY_NAME "timmons"
WEIGHT_NAME "medium"
SLANT "i"
SETWIDTH_NAME "normal"
ADD_STYLE_NAME ""
PIXEL_SIZE 25
POINT_SIZE 240
RESOLUTION_X 75
RESOLUTION_Y 75
SPACING "p"
AVERAGE_WIDTH 125
CHARSET_REGISTRY "adobe"
CHARSET_ENCODING "fontspecific"
COPYRIGHT "© 1999 Sun Microsystems, Inc."
RAW_PIXELSIZE 1000
RAW_POINTSIZE 964
RAW_ASCENT 924
RAW_DESCENT 196
RAW_AVERAGE_WIDTH 5015
FACE_NAME "TimmonsItalicnsB5"
_XMBDFED_INFO "Edited with xmbdfed 2.4."
WEIGHT 10
X_HEIGHT -2
QUAD_WIDTH 13
DEFAULT_CHAR 4
FONT_DESCENT 5
FONT_ASCENT 23
ENDPROPERTIES

CHARS 214

STARTCHAR char32
ENCODING 32
SWIDTH 21 0
DWIDTH 6 0
BBX 0 0 0 0
BITMAP
ENDCHAR

STARTCHAR char33
ENCODING 33
SWIDTH 25 0
DWIDTH 7 0
BBX 6 18 2 0
BITMAP
04
0C
0C
0C
18
18
18
10
10
20
20
20
20
20
00
C0
C0
C0
ENDCHAR

STARTCHAR char34
ENCODING 34
SWIDTH 32 0
DWIDTH 9 0
BBX 8 6 3 12
BITMAP
21
33
33
22
66
88
ENDCHAR

STARTCHAR char35
ENCODING 35
SWIDTH 6 0
DWIDTH 12 0
BBX 12 18 0 0
BITMAP
0C40
08C0
08C0
18C0
18C0
FFF0
1FF0
1880
1080
1180
3180
FFE0
FFE0
3100
3100
2300
2300
6300
ENDCHAR

STARTCHAR char36
ENCODING 36
SWIDTH 6 0
DWIDTH 12 0
BBX 13 23 0 -3
BITMAP
0040
0040
03C0
0C70
0858
1888
1888
1908
1D00
0F00
0700
0380
03C0
02C0
4260
4460
8460
C4E0
E5C0
3F00
0800
0800
0800
ENDCHAR

STARTCHAR char37
ENCODING 37
SWIDTH 24 0
DWIDTH 17 0
BBX 17 18 1 0
BITMAP
1C0800
320800
631000
631000
432000
C32000
C34000
C64E00
C69900
CCB180
493180
316180
026180
026380
046300
046300
086600
083C00
ENDCHAR

STARTCHAR char38
ENCODING 38
SWIDTH 21 0
DWIDTH 16 0
BBX 16 18 0 0
BITMAP
0070
01B8
0198
0318
0338
0330
0360
0380
0F80
33BF
6188
C198
C1D0
C1E0
C0E0
E0E0
71F3
3E3C
ENDCHAR

STARTCHAR char39
ENCODING 39
SWIDTH 17 0
DWIDTH 5 0
BBX 4 6 4 12
BITMAP
30
40
40
C0
C0
C0
ENDCHAR

STARTCHAR char40
ENCODING 40
SWIDTH 28 0
DWIDTH 8 0
BBX 10 23 2 -4
BITMAP
0040
0180
0300
0600
0C00
1800
3000
3000
7000
6000
6000
E000
C000
C000
C000
C000
C000
C000
4000
6000
2000
1000
1000
ENDCHAR

STARTCHAR char41
ENCODING 41
SWIDTH 28 0
DWIDTH 8 0
BBX 10 23 -3 -4
BITMAP
0100
0100
0080
0080
0080
00C0
00C0
00C0
00C0
00C0
00C0
00C0
00C0
0180
0180
0180
0300
0600
0600
0C00
1800
6000
4000
ENDCHAR

STARTCHAR char42
ENCODING 42
SWIDTH 35 0
DWIDTH 10 0
BBX 9 10 3 8
BITMAP
0800
1800
C980
EB00
3E00
3C00
EB80
C980
1800
0800
ENDCHAR

STARTCHAR char43
ENCODING 43
SWIDTH 21 0
DWIDTH 16 0
BBX 15 15 1 0
BITMAP
0300
0300
0300
0300
0300
0300
0300
FFFE
0300
0300
0300
0300
0300
0300
0300
ENDCHAR

STARTCHAR char44
ENCODING 44
SWIDTH 21 0
DWIDTH 6 0
BBX 3 6 0 -3
BITMAP
20
60
60
20
40
80
ENDCHAR

STARTCHAR char45
ENCODING 45
SWIDTH 25 0
DWIDTH 7 0
BBX 7 2 1 5
BITMAP
FC
FC
ENDCHAR

STARTCHAR char46
ENCODING 46
SWIDTH 21 0
DWIDTH 6 0
BBX 2 3 1 0
BITMAP
C0
C0
C0
ENDCHAR

STARTCHAR char47
ENCODING 47
SWIDTH 28 0
DWIDTH 8 0
BBX 8 18 1 0
BITMAP
01
03
02
06
06
04
0C
08
18
10
30
30
20
60
40
C0
C0
80
ENDCHAR

STARTCHAR char48
ENCODING 48
SWIDTH 3 0
DWIDTH 11 0
BBX 11 18 1 0
BITMAP
0780
0CC0
1840
3060
3060
7060
6060
6060
E060
E0E0
C0C0
C0C0
C0C0
C180
C180
4300
4600
3C00
ENDCHAR

STARTCHAR char49
ENCODING 49
SWIDTH 3 0
DWIDTH 11 0
BBX 9 18 1 0
BITMAP
0180
0F80
0300
0300
0300
0700
0600
0600
0600
0C00
0C00
0C00
0C00
1800
1800
1800
3800
FC00
ENDCHAR

STARTCHAR char50
ENCODING 50
SWIDTH 3 0
DWIDTH 11 0
BBX 12 18 -1 0
BITMAP
03C0
07E0
08F0
0870
0030
0030
0020
0060
0040
00C0
0180
0300
0600
0C00
1840
3040
7F80
FF80
ENDCHAR

STARTCHAR char51
ENCODING 51
SWIDTH 3 0
DWIDTH 11 0
BBX 11 18 0 0
BITMAP
03C0
0CE0
08E0
0060
00E0
00C0
0180
0700
0700
0380
0180
0180
0180
0180
0100
0100
E600
7800
ENDCHAR

STARTCHAR char52
ENCODING 52
SWIDTH 3 0
DWIDTH 11 0
BBX 12 18 0 0
BITMAP
0030
0030
0070
00E0
0160
0260
04C0
08C0
10C0
2180
6180
7FE0
7FE0
0300
0300
0300
0700
0600
ENDCHAR

STARTCHAR char53
ENCODING 53
SWIDTH 3 0
DWIDTH 11 0
BBX 12 18 0 0
BITMAP
07F0
07E0
0400
0800
0800
1E00
1F80
0380
01C0
01C0
00C0
00C0
00C0
0080
0100
0100
E600
7800
ENDCHAR

STARTCHAR char54
ENCODING 54
SWIDTH 3 0
DWIDTH 11 0
BBX 12 18 1 0
BITMAP
0070
0180
0300
0E00
1C00
1800
3800
7F80
6180
E0C0
E0C0
C0C0
C0C0
C0C0
C180
C100
6300
3C00
ENDCHAR

STARTCHAR char55
ENCODING 55
SWIDTH 3 0
DWIDTH 11 0
BBX 10 18 3 0
BITMAP
3FC0
7F80
4180
8100
0300
0200
0600
0400
0C00
0800
1800
1000
3000
2000
6000
4000
C000
8000
ENDCHAR

STARTCHAR char56
ENCODING 56
SWIDTH 3 0
DWIDTH 11 0
BBX 11 18 1 0
BITMAP
0780
1840
1020
3020
3060
3860
38C0
1D80
0E00
1F00
2380
61C0
C0C0
C0C0
C0C0
C080
4180
3E00
ENDCHAR

STARTCHAR char57
ENCODING 57
SWIDTH 3 0
DWIDTH 11 0
BBX 12 18 0 0
BITMAP
03C0
0460
0820
1830
1830
3030
3030
3070
3070
3060
18E0
0FC0
01C0
0180
0300
0600
1800
6000
ENDCHAR

STARTCHAR char58
ENCODING 58
SWIDTH 25 0
DWIDTH 7 0
BBX 5 12 2 0
BITMAP
18
18
18
00
00
00
00
00
00
60
C0
60
ENDCHAR

STARTCHAR char59
ENCODING 59
SWIDTH 25 0
DWIDTH 7 0
BBX 6 15 1 -3
BITMAP
04
0C
0C
00
00
00
00
00
00
20
60
20
20
40
80
ENDCHAR

STARTCHAR char60
ENCODING 60
SWIDTH 10 0
DWIDTH 13 0
BBX 13 13 0 0
BITMAP
0008
0038
01E0
0780
1E00
7800
C000
F000
3C00
0F00
01C0
0078
0018
ENDCHAR

STARTCHAR char61
ENCODING 61
SWIDTH 21 0
DWIDTH 16 0
BBX 17 5 0 5
BITMAP
FFFF80
000000
000000
000000
FFFF80
ENDCHAR

STARTCHAR char62
ENCODING 62
SWIDTH 10 0
DWIDTH 13 0
BBX 13 13 0 0
BITMAP
8000
E000
7800
0E00
03C0
00F0
0038
0078
01C0
0F00
3C00
F000
C000
ENDCHAR

STARTCHAR char63
ENCODING 63
SWIDTH 35 0
DWIDTH 10 0
BBX 9 18 3 0
BITMAP
1E00
3300
6180
7180
0380
0380
0700
0E00
0800
1000
2000
2000
2000
2000
0000
4000
C000
C000
ENDCHAR

STARTCHAR char64
ENCODING 64
SWIDTH 24 0
DWIDTH 27 0
BBX 18 20 4 -1
BITMAP
01F000
07F800
1C0E00
300700
600180
63ED80
C7FCC0
CE1CC0
CC18C0
DC18C0
D818C0
D83180
D83100
DC7300
4FFE00
679980
300380
1C0F00
07FC00
01F000
ENDCHAR

STARTCHAR char65
ENCODING 65
SWIDTH 21 0
DWIDTH 16 0
BBX 16 18 -2 0
BITMAP
0002
0002
0006
000E
001E
001E
002E
004E
00CC
008C
010C
030C
07FC
040C
081C
101C
301C
F87F
ENDCHAR

STARTCHAR char66
ENCODING 66
SWIDTH 17 0
DWIDTH 15 0
BBX 15 18 -1 0
BITMAP
0FF0
039C
030E
0306
0706
0706
060C
0E18
0FE0
0C70
0C38
1C18
1818
1818
3818
3838
70F0
FFC0
ENDCHAR

STARTCHAR char67
ENCODING 67
SWIDTH 21 0
DWIDTH 16 0
BBX 16 18 2 0
BITMAP
01FA
070E
0E06
1C02
3802
7002
6000
E000
E000
C000
C000
C000
C000
C000
6008
7010
3860
0F80
ENDCHAR

STARTCHAR char68
ENCODING 68
SWIDTH 24 0
DWIDTH 17 0
BBX 18 18 -2 0
BITMAP
07F800
03CE00
018300
038380
038180
0300C0
0300C0
0700C0
0600C0
0600C0
0E01C0
0E0180
0C0380
0C0700
1C0600
1C0C00
3C3800
FFC000
ENDCHAR

STARTCHAR char69
ENCODING 69
SWIDTH 13 0
DWIDTH 14 0
BBX 17 18 -1 0
BITMAP
07FF80
038300
030100
030100
070100
070800
060800
061000
0FF000
0C2000
0C2000
1C2000
1C0000
180400
180400
380C00
381800
FFF800
ENDCHAR

STARTCHAR char70
ENCODING 70
SWIDTH 6 0
DWIDTH 12 0
BBX 16 18 -1 0
BITMAP
0FFF
0383
0381
0381
0300
0700
0710
0610
0FF0
0E30
0E10
0C10
1C00
1C00
1800
3800
3800
FE00
ENDCHAR

STARTCHAR char71
ENCODING 71
SWIDTH 24 0
DWIDTH 17 0
BBX 15 18 2 0
BITMAP
01F2
070E
0C06
1802
3002
7000
6000
E000
C000
C0FE
C038
C038
C030
C030
6070
6070
3060
1FC0
ENDCHAR

STARTCHAR char72
ENCODING 72
SWIDTH 24 0
DWIDTH 17 0
BBX 21 18 -2 0
BITMAP
07E1F0
01C0F0
0180E0
0380C0
0380C0
0301C0
0701C0
070180
07FF80
060380
0E0300
0E0700
0C0700
0C0700
1C0600
1C0E00
3C0E00
7E3F00
ENDCHAR

STARTCHAR char73
ENCODING 73
SWIDTH 28 0
DWIDTH 8 0
BBX 12 18 -1 0
BITMAP
07E0
03C0
0380
0380
0380
0300
0700
0700
0600
0600
0E00
0E00
0C00
1C00
1C00
1800
3800
7E00
ENDCHAR

STARTCHAR char74
ENCODING 74
SWIDTH 35 0
DWIDTH 10 0
BBX 14 18 -1 0
BITMAP
01FC
00F0
00E0
00E0
00C0
00C0
01C0
01C0
0180
0380
0380
0300
0300
0700
4700
E600
CC00
7800
ENDCHAR

STARTCHAR char75
ENCODING 75
SWIDTH 21 0
DWIDTH 16 0
BBX 20 18 -2 0
BITMAP
07F1F0
03C1C0
01C100
018200
038400
031800
032000
074000
07C000
06E000
0E6000
0E7000
0C3000
0C3800
1C1800
1C1C00
3C1E00
7E3F80
ENDCHAR

STARTCHAR char76
ENCODING 76
SWIDTH 13 0
DWIDTH 14 0
BBX 15 18 -1 0
BITMAP
0FE0
0380
0380
0300
0700
0700
0600
0600
0E00
0C00
0C00
1C00
1800
1802
1802
3804
381C
FFFC
ENDCHAR

STARTCHAR char77
ENCODING 77
SWIDTH 35 0
DWIDTH 20 0
BBX 24 18 -2 0
BITMAP
07801F
03801C
01C03C
03C078
03C078
02C0B8
04C1B0
04C130
04C270
0CC670
08C460
08E8E0
08E8E0
10F0C0
10E0C0
10C1C0
30C1C0
FC87E0
ENDCHAR

STARTCHAR char78
ENCODING 78
SWIDTH 24 0
DWIDTH 17 0
BBX 21 18 -2 0
BITMAP
0F81F8
038060
01C040
03C040
02E040
02E080
026080
047080
043080
043900
083900
081D00
081E00
180E00
100E00
100600
300400
DC0400
ENDCHAR

STARTCHAR char79
ENCODING 79
SWIDTH 24 0
DWIDTH 17 0
BBX 14 18 2 0
BITMAP
03E0
0E30
1C18
380C
300C
700C
600C
E00C
E00C
C01C
C01C
C018
C038
C030
C070
4060
21C0
1F00
ENDCHAR

STARTCHAR char80
ENCODING 80
SWIDTH 10 0
DWIDTH 13 0
BBX 15 18 -1 0
BITMAP
07F8
038C
0386
0306
0306
0706
070E
060C
0E38
0FE0
0E00
0C00
1C00
1C00
1800
3800
3800
FE00
ENDCHAR

STARTCHAR char81
ENCODING 81
SWIDTH 24 0
DWIDTH 17 0
BBX 15 22 1 -4
BITMAP
01F0
0718
0C0C
1C06
1806
3806
7006
7006
6006
E00E
C00C
C00C
C018
C018
E030
6020
3040
1F80
0402
1804
3FF8
47F0
ENDCHAR

STARTCHAR char82
ENCODING 82
SWIDTH 17 0
DWIDTH 15 0
BBX 16 18 -1 0
BITMAP
0FF0
079C
030E
0706
0706
0606
060C
0E18
0E30
0FE0
1CE0
1C60
1870
1870
3830
3838
3818
FE1E
ENDCHAR

STARTCHAR char83
ENCODING 83
SWIDTH 6 0
DWIDTH 12 0
BBX 15 18 -1 0
BITMAP
01E2
061C
040C
0C04
0C04
0C04
0E00
0700
0380
01C0
00E0
0070
4030
4030
4030
6070
F0E0
8FC0
ENDCHAR

STARTCHAR char84
ENCODING 84
SWIDTH 10 0
DWIDTH 13 0
BBX 16 18 1 0
BITMAP
3FFE
79CE
4182
4382
4382
0380
0300
0700
0700
0600
0600
0E00
0E00
0C00
1C00
1C00
1C00
FF00
ENDCHAR

STARTCHAR char85
ENCODING 85
SWIDTH 24 0
DWIDTH 17 0
BBX 17 18 2 0
BITMAP
7F0F80
1C0600
180200
180400
380400
380400
300C00
700800
700800
600800
601000
E01000
C01000
C02000
C02000
E04000
708000
3F0000
ENDCHAR

STARTCHAR char86
ENCODING 86
SWIDTH 17 0
DWIDTH 15 0
BBX 16 18 3 0
BITMAP
FE1F
380C
3008
3010
3020
3060
3040
3080
3100
3300
3200
3400
3C00
3000
7000
6000
4000
4000
ENDCHAR

STARTCHAR char87
ENCODING 87
SWIDTH 6 0
DWIDTH 22 0
BBX 24 17 2 1
BITMAP
FEFE3F
181C0C
180808
180810
181830
183820
185840
1898C0
399880
391900
3A1B00
3A1A00
3C1A00
381C00
301800
201000
201000
ENDCHAR

STARTCHAR char88
ENCODING 88
SWIDTH 17 0
DWIDTH 15 0
BBX 19 18 -2 0
BITMAP
0FE7E0
0381C0
018100
018200
01C400
01C800
00D000
00F000
00E000
00E000
00E000
016000
027000
047000
083000
183000
303800
78FE00
ENDCHAR

STARTCHAR char89
ENCODING 89
SWIDTH 17 0
DWIDTH 15 0
BBX 16 18 3 0
BITMAP
FC1E
381C
3818
1810
1C20
1C40
0C80
0D80
0F00
0E00
0E00
0C00
0C00
1C00
1800
1800
3800
FE00
ENDCHAR

STARTCHAR char90
ENCODING 90
SWIDTH 17 0
DWIDTH 15 0
BBX 16 18 0 0
BITMAP
1FFF
180E
300E
201C
2038
0070
00E0
01E0
01C0
0380
0700
0E00
0E00
1C04
3804
7004
E01C
FFF8
ENDCHAR

STARTCHAR char91
ENCODING 91
SWIDTH 28 0
DWIDTH 8 0
BBX 11 22 0 -4
BITMAP
03E0
0600
0600
0600
0600
0C00
0C00
0C00
1800
1800
1800
1800
3000
3000
3000
7000
6000
6000
6000
C000
C000
F800
ENDCHAR

STARTCHAR char92
ENCODING 92
SWIDTH 25 0
DWIDTH 7 0
BBX 7 18 0 0
BITMAP
C0
C0
40
40
60
60
20
30
30
10
18
18
08
0C
0C
04
06
06
ENDCHAR

STARTCHAR char93
ENCODING 93
SWIDTH 28 0
DWIDTH 8 0
BBX 11 22 -2 -4
BITMAP
03E0
0060
00C0
00C0
00C0
0180
0180
0180
0180
0300
0300
0300
0700
0600
0600
0600
0C00
0C00
0C00
0C00
1800
F800
ENDCHAR

STARTCHAR char94
ENCODING 94
SWIDTH 0 0
DWIDTH 0 0
BBX 8 3 -1 19
BITMAP
1C
36
41
ENDCHAR

STARTCHAR char95
ENCODING 95
SWIDTH 17 0
DWIDTH 15 0
BBX 14 1 0 -3
BITMAP
FFFC
ENDCHAR

STARTCHAR char96
ENCODING 96
SWIDTH 0 0
DWIDTH 0 0
BBX 4 4 1 14
BITMAP
E0
60
20
10
ENDCHAR

STARTCHAR char97
ENCODING 97
SWIDTH 6 0
DWIDTH 12 0
BBX 12 11 0 0
BITMAP
07F0
1870
3060
3060
60E0
60C0
C0C0
C1C0
C390
E5E0
79C0
ENDCHAR

STARTCHAR char98
ENCODING 98
SWIDTH 6 0
DWIDTH 12 0
BBX 10 17 1 0
BITMAP
3C00
1C00
1800
1800
1800
3000
3F80
30C0
30C0
60C0
60C0
6080
4180
C100
C300
C600
7800
ENDCHAR

STARTCHAR char99
ENCODING 99
SWIDTH 32 0
DWIDTH 9 0
BBX 9 11 1 0
BITMAP
0F80
1180
2100
6000
4000
C000
C000
C000
C100
6200
3C00
ENDCHAR

STARTCHAR char100
ENCODING 100
SWIDTH 6 0
DWIDTH 12 0
BBX 12 18 1 0
BITMAP
0010
0070
0030
0030
0060
0060
0060
0FC0
30C0
20C0
60C0
4180
C180
C380
C700
C700
FBC0
6300
ENDCHAR

STARTCHAR char101
ENCODING 101
SWIDTH 35 0
DWIDTH 10 0
BBX 10 11 1 0
BITMAP
0FC0
10C0
30C0
6180
4600
F800
C000
C000
C180
6700
3800
ENDCHAR

STARTCHAR char102
ENCODING 102
SWIDTH 25 0
DWIDTH 7 0
BBX 16 22 -4 -4
BITMAP
0006
001B
0013
0020
0060
0060
00C0
03F0
00C0
00C0
0180
0180
0180
0180
0300
0300
0300
0600
0600
0400
C800
F000
ENDCHAR

STARTCHAR char103
ENCODING 103
SWIDTH 35 0
DWIDTH 10 0
BBX 12 15 -1 -4
BITMAP
0FE0
18C0
30C0
30C0
3080
1300
0C00
1000
3800
1F00
2380
4080
C080
C080
3F00
ENDCHAR

STARTCHAR char104
ENCODING 104
SWIDTH 6 0
DWIDTH 12 0
BBX 11 17 0 0
BITMAP
1E00
0C00
0C00
0C00
0C00
1800
19E0
1BE0
3460
3840
3840
30C0
60C0
6080
6180
C1E0
4180
ENDCHAR

STARTCHAR char105
ENCODING 105
SWIDTH 21 0
DWIDTH 6 0
BBX 6 16 1 0
BITMAP
0C
0C
00
00
78
18
18
30
30
30
20
60
60
60
70
60
ENDCHAR

STARTCHAR char106
ENCODING 106
SWIDTH 21 0
DWIDTH 6 0
BBX 10 20 -4 -4
BITMAP
00C0
00C0
0000
0000
0080
0180
0180
0100
0300
0300
0300
0300
0600
0600
0600
0600
0C00
0C00
D800
7000
ENDCHAR

STARTCHAR char107
ENCODING 107
SWIDTH 6 0
DWIDTH 12 0
BBX 14 18 0 0
BITMAP
0200
1E00
0600
0C00
0C00
0C00
1800
187C
18C0
1900
3200
3E00
3300
6300
6100
6190
61E0
40C0
ENDCHAR

STARTCHAR char108
ENCODING 108
SWIDTH 21 0
DWIDTH 6 0
BBX 7 18 1 0
BITMAP
02
1E
0C
0C
0C
18
18
18
30
30
30
30
60
60
60
C0
D0
E0
ENDCHAR

STARTCHAR char109
ENCODING 109
SWIDTH 28 0
DWIDTH 18 0
BBX 17 11 0 0
BITMAP
33C780
34C980
38D180
38E100
21C300
61C300
418200
430600
C30600
C30780
410600
ENDCHAR

STARTCHAR char110
ENCODING 110
SWIDTH 6 0
DWIDTH 12 0
BBX 11 11 0 0
BITMAP
1DE0
1A60
1C60
1C60
3840
30C0
30C0
60C0
6180
61E0
4180
ENDCHAR

STARTCHAR char111
ENCODING 111
SWIDTH 6 0
DWIDTH 12 0
BBX 10 11 1 0
BITMAP
1F80
30C0
60C0
60C0
C0C0
C0C0
C180
C180
C300
4600
3800
ENDCHAR

STARTCHAR char112
ENCODING 112
SWIDTH 6 0
DWIDTH 12 0
BBX 14 15 -3 -4
BITMAP
0FF8
031C
070C
060C
060C
0418
0C18
0C30
0C30
1C60
1B80
1800
1000
3000
F800
ENDCHAR

STARTCHAR char113
ENCODING 113
SWIDTH 6 0
DWIDTH 12 0
BBX 11 15 1 -4
BITMAP
0FE0
10E0
20C0
60C0
4180
C180
C380
C700
C700
EB00
7300
0600
0600
0600
3F00
ENDCHAR

STARTCHAR char114
ENCODING 114
SWIDTH 28 0
DWIDTH 8 0
BBX 8 12 1 0
BITMAP
71
37
3B
38
30
20
60
60
40
C0
C0
C0
ENDCHAR

STARTCHAR char115
ENCODING 115
SWIDTH 32 0
DWIDTH 9 0
BBX 9 11 0 0
BITMAP
0F80
1880
1880
1800
0C00
0600
0700
8300
8300
C600
BE00
ENDCHAR

STARTCHAR char116
ENCODING 116
SWIDTH 25 0
DWIDTH 7 0
BBX 7 14 1 0
BITMAP
04
08
18
7E
18
30
30
30
60
60
E0
C8
D8
E0
ENDCHAR

STARTCHAR char117
ENCODING 117
SWIDTH 6 0
DWIDTH 12 0
BBX 11 11 1 0
BITMAP
7040
B060
30E0
20C0
60C0
6180
6380
C580
C940
D340
E380
ENDCHAR

STARTCHAR char118
ENCODING 118
SWIDTH 35 0
DWIDTH 10 0
BBX 8 11 2 0
BITMAP
C3
C1
61
61
62
62
64
68
70
60
40
ENDCHAR

STARTCHAR char119
ENCODING 119
SWIDTH 17 0
DWIDTH 15 0
BBX 15 11 0 0
BITMAP
6086
3086
3182
32C4
32C4
34C8
34C8
38D0
30E0
20C0
2080
ENDCHAR

STARTCHAR char120
ENCODING 120
SWIDTH 6 0
DWIDTH 12 0
BBX 13 11 -1 0
BITMAP
1C18
0C78
0680
0700
0300
0300
0580
0580
0990
D0F0
E0C0
ENDCHAR

STARTCHAR char121
ENCODING 121
SWIDTH 35 0
DWIDTH 10 0
BBX 13 16 -3 -4
BITMAP
1000
0C18
0608
0608
0610
0610
0620
0240
0240
0380
0300
0200
0600
0400
D800
E000
ENDCHAR

STARTCHAR char122
ENCODING 122
SWIDTH 32 0
DWIDTH 9 0
BBX 11 11 -1 0
BITMAP
1FE0
13C0
2080
0100
0200
0400
0800
1000
2080
7F80
FF00
ENDCHAR

STARTCHAR char123
ENCODING 123
SWIDTH 32 0
DWIDTH 9 0
BBX 6 23 1 -5
BITMAP
1C
3C
30
30
30
30
30
30
30
30
60
C0
60
30
30
30
30
30
30
30
30
3C
1C
ENDCHAR

STARTCHAR char124
ENCODING 124
SWIDTH 25 0
DWIDTH 7 0
BBX 2 18 2 0
BITMAP
C0
C0
C0
C0
C0
C0
C0
C0
C0
C0
C0
C0
C0
C0
C0
C0
C0
C0
ENDCHAR

STARTCHAR char125
ENCODING 125
SWIDTH 32 0
DWIDTH 9 0
BBX 6 23 1 -5
BITMAP
E0
F0
30
30
30
30
30
30
30
38
1C
0C
18
38
30
30
30
30
30
30
30
F0
E0
ENDCHAR

STARTCHAR char126
ENCODING 126
SWIDTH 0 0
DWIDTH 0 0
BBX 10 3 -1 20
BITMAP
0C40
3F80
C600
ENDCHAR

STARTCHAR char128
ENCODING 128
SWIDTH 6 0
DWIDTH 12 0
BBX 15 17 0 0
BITMAP
00F8
018E
0604
0E04
0C04
1800
3800
7FE0
3000
FFC0
7000
6000
6000
6000
6020
30C0
1F00
ENDCHAR

STARTCHAR char130
ENCODING 130
SWIDTH 17 0
DWIDTH 5 0
BBX 3 6 0 -3
BITMAP
20
60
60
20
40
80
ENDCHAR

STARTCHAR char131
ENCODING 131
SWIDTH 0 0
DWIDTH 0 0
BBX 8 3 -1 19
BITMAP
1C
36
41
ENDCHAR

STARTCHAR char132
ENCODING 132
SWIDTH 32 0
DWIDTH 9 0
BBX 7 6 0 -3
BITMAP
22
66
66
42
44
88
ENDCHAR

STARTCHAR char133
ENCODING 133
SWIDTH 24 0
DWIDTH 27 0
BBX 19 3 3 0
BITMAP
C0C060
C0C060
C0C060
ENDCHAR

STARTCHAR char134
ENCODING 134
SWIDTH 3 0
DWIDTH 11 0
BBX 10 22 2 -4
BITMAP
0300
0700
0700
0600
0600
7FC0
75C0
0C00
1C00
1C00
1800
1800
1000
1000
2000
2000
2000
2000
4000
4000
4000
8000
ENDCHAR

STARTCHAR char135
ENCODING 135
SWIDTH 16 0
DWIDTH 25 0
BBX 0 0 0 0
BITMAP
ENDCHAR

STARTCHAR char136
ENCODING 136
SWIDTH 0 0
DWIDTH 0 0
BBX 7 4 0 14
BITMAP
1C
3C
64
C2
ENDCHAR

STARTCHAR char137
ENCODING 137
SWIDTH 16 0
DWIDTH 25 0
BBX 0 0 0 0
BITMAP
ENDCHAR

STARTCHAR char138
ENCODING 138
SWIDTH 16 0
DWIDTH 25 0
BBX 0 0 0 0
BITMAP
ENDCHAR

STARTCHAR char139
ENCODING 139
SWIDTH 32 0
DWIDTH 9 0
BBX 4 8 2 3
BITMAP
10
30
70
C0
C0
60
30
10
ENDCHAR

STARTCHAR char140
ENCODING 140
SWIDTH 9 0
DWIDTH 23 0
BBX 24 18 1 0
BITMAP
00FFFF
031F0E
0C0F02
1C0E02
380E02
300E00
700C20
600C20
E01FE0
C01840
C01840
C03840
C03800
C03008
C07008
607018
30F030
1FFFF0
ENDCHAR

STARTCHAR char141
ENCODING 141
SWIDTH 16 0
DWIDTH 25 0
BBX 0 0 0 0
BITMAP
ENDCHAR

STARTCHAR char143
ENCODING 143
SWIDTH 16 0
DWIDTH 25 0
BBX 0 0 0 0
BITMAP
ENDCHAR

STARTCHAR char145
ENCODING 145
SWIDTH 21 0
DWIDTH 6 0
BBX 4 6 4 12
BITMAP
10
20
40
C0
E0
60
ENDCHAR

STARTCHAR char146
ENCODING 146
SWIDTH 21 0
DWIDTH 6 0
BBX 4 6 4 12
BITMAP
30
70
30
20
40
80
ENDCHAR

STARTCHAR char147
ENCODING 147
SWIDTH 32 0
DWIDTH 9 0
BBX 8 6 4 12
BITMAP
22
46
84
CC
CC
CC
ENDCHAR

STARTCHAR char148
ENCODING 148
SWIDTH 32 0
DWIDTH 9 0
BBX 7 6 4 12
BITMAP
66
66
66
44
44
88
ENDCHAR

STARTCHAR char149
ENCODING 149
SWIDTH 32 0
DWIDTH 9 0
BBX 7 6 1 6
BITMAP
38
7C
FE
FE
FE
38
ENDCHAR

STARTCHAR char150
ENCODING 150
SWIDTH 3 0
DWIDTH 11 0
BBX 11 2 0 5
BITMAP
7FE0
FFC0
ENDCHAR

STARTCHAR char151
ENCODING 151
SWIDTH 21 0
DWIDTH 16 0
BBX 17 1 0 7
BITMAP
FFFF80
ENDCHAR

STARTCHAR char152
ENCODING 152
SWIDTH 0 0
DWIDTH 0 0
BBX 9 3 -1 14
BITMAP
3C80
FF00
8000
ENDCHAR

STARTCHAR char153
ENCODING 153
SWIDTH 2 0
DWIDTH 21 0
BBX 20 10 -1 7
BITMAP
FE6070
9B3060
9930A0
1838E0
1838E0
182D60
182D60
182560
182660
3C72F0
ENDCHAR

STARTCHAR char154
ENCODING 154
SWIDTH 16 0
DWIDTH 25 0
BBX 0 0 0 0
BITMAP
ENDCHAR

STARTCHAR char155
ENCODING 155
SWIDTH 32 0
DWIDTH 9 0
BBX 4 8 2 3
BITMAP
80
C0
70
30
30
70
C0
80
ENDCHAR

STARTCHAR char156
ENCODING 156
SWIDTH 24 0
DWIDTH 17 0
BBX 18 12 0 0
BITMAP
070000
18CF80
3070C0
3061C0
606180
E0C600
C0F800
C0C000
C1C000
C1C080
43E300
3C7C00
ENDCHAR

STARTCHAR char157
ENCODING 157
SWIDTH 16 0
DWIDTH 25 0
BBX 0 0 0 0
BITMAP
ENDCHAR

STARTCHAR char159
ENCODING 159
SWIDTH 17 0
DWIDTH 15 0
BBX 16 22 3 0
BITMAP
0C30
0C30
0C30
0000
FE1F
380C
3018
1810
1820
1840
0C40
0C80
0700
0600
0C00
0C00
0C00
1800
1800
1800
3800
FE00
ENDCHAR

STARTCHAR char160
ENCODING 160
SWIDTH 21 0
DWIDTH 6 0
BBX 0 0 0 0
BITMAP
ENDCHAR

STARTCHAR char161
ENCODING 161
SWIDTH 25 0
DWIDTH 7 0
BBX 6 18 1 0
BITMAP
0C
0C
0C
00
08
08
10
10
10
20
20
20
60
60
60
E0
C0
C0
ENDCHAR

STARTCHAR char162
ENCODING 162
SWIDTH 32 0
DWIDTH 9 0
BBX 9 18 1 -3
BITMAP
0200
0200
0200
0700
1B80
3580
2580
6400
4800
C800
C800
D800
D100
F200
7C00
2000
2000
2000
ENDCHAR

STARTCHAR char163
ENCODING 163
SWIDTH 10 0
DWIDTH 13 0
BBX 15 18 -1 0
BITMAP
007C
00C6
01CE
0184
0380
0380
0300
0300
1FF0
0700
0700
0600
0600
0600
7C08
9C10
9FF0
73C0
ENDCHAR

STARTCHAR char164
ENCODING 164
SWIDTH 0 0
DWIDTH 0 0
BBX 6 3 2 19
BITMAP
38
60
80
ENDCHAR

STARTCHAR char165
ENCODING 165
SWIDTH 0 0
DWIDTH 0 0
BBX 8 3 0 19
BITMAP
42
3C
38
ENDCHAR

STARTCHAR char166
ENCODING 166
SWIDTH 16 0
DWIDTH 25 0
BBX 0 0 0 0
BITMAP
ENDCHAR

STARTCHAR char167
ENCODING 167
SWIDTH 35 0
DWIDTH 10 0
BBX 13 23 -1 -4
BITMAP
00F0
0198
0318
0700
0700
0300
0300
0300
1F80
3180
30C0
30E0
1860
1C60
1E40
0F80
0600
0700
0300
4300
C600
CE00
7800
ENDCHAR

STARTCHAR char168
ENCODING 168
SWIDTH 0 0
DWIDTH 0 0
BBX 7 3 0 14
BITMAP
C6
C6
C6
ENDCHAR

STARTCHAR char169
ENCODING 169
SWIDTH 28 0
DWIDTH 18 0
BBX 17 16 0 0
BITMAP
07F000
181800
200600
41F200
423100
841180
8C1080
8C0080
8C0080
8C0080
840180
463100
43C200
200600
181800
07F000
ENDCHAR

STARTCHAR char170
ENCODING 170
SWIDTH 0 0
DWIDTH 0 0
BBX 8 3 0 19
BITMAP
C3
C3
C3
ENDCHAR

STARTCHAR char171
ENCODING 171
SWIDTH 3 0
DWIDTH 11 0
BBX 11 11 1 1
BITMAP
0840
18C0
3180
6180
6300
C600
C600
4200
4300
6100
2100
ENDCHAR

STARTCHAR char172
ENCODING 172
SWIDTH 21 0
DWIDTH 16 0
BBX 17 7 -1 0
BITMAP
FFFF80
000180
000180
000180
000180
000180
000180
ENDCHAR

STARTCHAR char173
ENCODING 173
SWIDTH 16 0
DWIDTH 25 0
BBX 0 0 0 0
BITMAP
ENDCHAR

STARTCHAR char174
ENCODING 174
SWIDTH 28 0
DWIDTH 18 0
BBX 17 16 0 0
BITMAP
07E000
181800
300400
6FE200
463100
863100
867080
878080
86C080
866080
867180
463100
4F3A00
200600
180C00
07F000
ENDCHAR

STARTCHAR char175
ENCODING 175
SWIDTH 16 0
DWIDTH 25 0
BBX 0 0 0 0
BITMAP
ENDCHAR

STARTCHAR char176
ENCODING 176
SWIDTH 21 0
DWIDTH 6 0
BBX 7 8 3 9
BITMAP
38
64
C2
82
82
C2
64
38
ENDCHAR

STARTCHAR char177
ENCODING 177
SWIDTH 10 0
DWIDTH 13 0
BBX 13 16 -1 0
BITMAP
0300
0300
0300
0300
0300
0300
FFF8
0300
0300
0300
0300
0300
0300
0000
0000
FFF8
ENDCHAR

STARTCHAR char178
ENCODING 178
SWIDTH 16 0
DWIDTH 25 0
BBX 0 0 0 0
BITMAP
ENDCHAR

STARTCHAR char179
ENCODING 179
SWIDTH 16 0
DWIDTH 25 0
BBX 0 0 0 0
BITMAP
ENDCHAR

STARTCHAR char180
ENCODING 180
SWIDTH 0 0
DWIDTH 0 0
BBX 4 4 3 14
BITMAP
60
C0
C0
80
ENDCHAR

STARTCHAR char181
ENCODING 181
SWIDTH 16 0
DWIDTH 25 0
BBX 0 0 0 0
BITMAP
ENDCHAR

STARTCHAR char182
ENCODING 182
SWIDTH 28 0
DWIDTH 18 0
BBX 11 22 2 -4
BITMAP
1FE0
3C60
7C60
FC60
FC60
FC60
FC60
7C60
7C60
3C60
0C60
0C60
0C60
0C60
0C60
0C60
0C60
0C60
0C60
0C60
0C60
0C60
ENDCHAR

STARTCHAR char183
ENCODING 183
SWIDTH 14 0
DWIDTH 4 0
BBX 2 3 2 6
BITMAP
C0
C0
C0
ENDCHAR

STARTCHAR char184
ENCODING 184
SWIDTH 0 0
DWIDTH 0 0
BBX 5 5 -4 -5
BITMAP
10
38
18
30
E0
ENDCHAR

STARTCHAR char186
ENCODING 186
SWIDTH 0 0
DWIDTH 0 0
BBX 10 3 -1 20
BITMAP
0C40
3F80
C600
ENDCHAR

STARTCHAR char187
ENCODING 187
SWIDTH 3 0
DWIDTH 11 0
BBX 11 11 0 1
BITMAP
2180
1080
1080
18C0
18C0
18E0
39C0
3180
6300
4200
8400
ENDCHAR

STARTCHAR char188
ENCODING 188
SWIDTH 16 0
DWIDTH 25 0
BBX 0 0 0 0
BITMAP
ENDCHAR

STARTCHAR char189
ENCODING 189
SWIDTH 16 0
DWIDTH 25 0
BBX 0 0 0 0
BITMAP
ENDCHAR

STARTCHAR char191
ENCODING 191
SWIDTH 35 0
DWIDTH 10 0
BBX 9 18 0 0
BITMAP
0300
0380
0300
0000
0200
0200
0200
0200
0400
0800
1800
3000
6000
E000
C600
C600
4600
3C00
ENDCHAR

STARTCHAR char192
ENCODING 192
SWIDTH 21 0
DWIDTH 16 0
BBX 16 22 -2 0
BITMAP
0038
000C
0002
0000
0002
0002
0006
000E
001E
001E
002E
004E
00CC
008C
010C
030C
07FC
040C
081C
101C
301C
F87F
ENDCHAR

STARTCHAR char193
ENCODING 193
SWIDTH 21 0
DWIDTH 16 0
BBX 16 22 -2 0
BITMAP
000E
0008
0010
0000
0002
0002
0006
000E
001E
001E
002E
004C
00CC
008C
010C
030C
07FC
0C0C
081C
101C
301C
F07F
ENDCHAR

STARTCHAR char194
ENCODING 194
SWIDTH 21 0
DWIDTH 16 0
BBX 16 22 -2 0
BITMAP
003C
0066
0082
0000
0002
0002
0006
000E
001E
001E
002E
004E
00CC
008C
010C
030C
07FC
040C
081C
101C
301C
F87F
ENDCHAR

STARTCHAR char195
ENCODING 195
SWIDTH 21 0
DWIDTH 16 0
BBX 17 23 -2 0
BITMAP
003880
007F00
008E00
000000
000000
000200
000200
000600
000E00
001E00
001E00
002E00
004E00
00CC00
008C00
010C00
030C00
07FC00
040C00
081C00
101C00
301C00
F87F00
ENDCHAR

STARTCHAR char196
ENCODING 196
SWIDTH 21 0
DWIDTH 16 0
BBX 19 22 -2 0
BITMAP
000C60
001C60
000C60
000000
000200
000200
000600
000E00
001E00
001E00
002E00
004E00
00CC00
008C00
010C00
030C00
07FC00
040C00
081C00
101C00
301C00
F87F00
ENDCHAR

STARTCHAR char197
ENCODING 197
SWIDTH 21 0
DWIDTH 16 0
BBX 18 23 -2 0
BITMAP
000380
000640
000440
0006C0
000380
000200
000200
000600
000E00
001E00
001E00
002E00
004E00
00CC00
008C00
010C00
030C00
07FC00
040C00
081C00
101C00
301C00
F87F00
ENDCHAR

STARTCHAR char198
ENCODING 198
SWIDTH 2 0
DWIDTH 21 0
BBX 25 18 -3 0
BITMAP
000FFF80
0003C180
00078080
00078080
000B8080
00130000
00330800
00670800
0047F800
00861000
01061000
03FE1000
020C0000
040C0200
081C0200
101C0400
301C0C00
F8FFFC00
ENDCHAR

STARTCHAR char199
ENCODING 199
SWIDTH 21 0
DWIDTH 16 0
BBX 16 23 2 -5
BITMAP
01FA
070E
0E06
1C02
3802
7002
7000
E000
E000
C000
C000
C000
C000
C000
6008
7010
3860
1F80
0800
1C00
0C00
0800
7000
ENDCHAR

STARTCHAR char200
ENCODING 200
SWIDTH 13 0
DWIDTH 14 0
BBX 17 22 -1 0
BITMAP
00F000
003000
000800
000000
07FF80
038300
030100
030100
070100
070800
060800
061000
0FF000
0C2000
0C2000
1C2000
1C0000
180400
180400
380C00
381800
FFF800
ENDCHAR

STARTCHAR char201
ENCODING 201
SWIDTH 13 0
DWIDTH 14 0
BBX 17 22 -1 0
BITMAP
001C00
003000
004000
000000
07FF80
038300
030100
030100
070100
070800
060800
061000
0FF000
0C2000
0C2000
1C2000
1C0000
180400
180400
380C00
381800
FFF800
ENDCHAR

STARTCHAR char202
ENCODING 202
SWIDTH 13 0
DWIDTH 14 0
BBX 17 22 -1 0
BITMAP
007000
00D800
010400
000000
07FF80
038300
030100
030100
070100
070800
060800
061000
0FF000
0C2000
0C2000
1C2000
1C0000
180400
180400
380C00
381800
FFF800
ENDCHAR

STARTCHAR char203
ENCODING 203
SWIDTH 13 0
DWIDTH 14 0
BBX 17 22 -1 0
BITMAP
018600
018600
018600
000000
07FF80
030100
030100
030100
070100
070800
060800
061000
0FF000
0C2000
0C2000
1C2000
1C0000
180400
180400
380C00
381C00
FFFC00
ENDCHAR

STARTCHAR char204
ENCODING 204
SWIDTH 28 0
DWIDTH 8 0
BBX 12 22 -1 0
BITMAP
0380
00C0
0020
0000
07E0
03C0
0380
0380
0380
0300
0700
0700
0600
0600
0E00
0E00
0C00
1C00
1C00
1800
3800
7E00
ENDCHAR

STARTCHAR char205
ENCODING 205
SWIDTH 28 0
DWIDTH 8 0
BBX 13 22 -1 0
BITMAP
00E0
0180
0100
0000
07E0
03C0
0380
0380
0380
0300
0700
0700
0600
0600
0E00
0E00
0C00
1C00
1C00
1800
3800
7E00
ENDCHAR

STARTCHAR char206
ENCODING 206
SWIDTH 28 0
DWIDTH 8 0
BBX 12 22 -1 0
BITMAP
03C0
0660
0820
0000
07E0
03C0
0380
0380
0380
0300
0700
0700
0600
0600
0E00
0E00
0C00
1C00
1C00
1800
3800
7E00
ENDCHAR

STARTCHAR char207
ENCODING 207
SWIDTH 28 0
DWIDTH 8 0
BBX 12 22 -1 0
BITMAP
0630
0630
0630
0000
07C0
0180
0180
0180
0180
0100
0300
0300
0600
0600
0E00
0E00
0C00
1C00
1C00
1800
3800
7E00
ENDCHAR

STARTCHAR char208
ENCODING 208
SWIDTH 16 0
DWIDTH 25 0
BBX 0 0 0 0
BITMAP
ENDCHAR

STARTCHAR char209
ENCODING 209
SWIDTH 24 0
DWIDTH 17 0
BBX 21 23 -2 0
BITMAP
003C40
007F80
008600
000000
000000
0F81F8
038060
01C040
03C040
02E040
02E080
026080
047080
043080
043900
083900
081D00
081E00
180E00
100E00
100600
300400
DC0400
ENDCHAR

STARTCHAR char210
ENCODING 210
SWIDTH 24 0
DWIDTH 17 0
BBX 14 22 2 0
BITMAP
01C0
0060
0010
0000
03E0
0E30
1C18
380C
300C
700C
600C
E00C
E00C
C01C
C01C
C018
C038
C030
C070
4060
21C0
1F00
ENDCHAR

STARTCHAR char211
ENCODING 211
SWIDTH 24 0
DWIDTH 17 0
BBX 14 22 2 0
BITMAP
0070
00C0
0080
0000
03E0
0E30
1C18
380C
300C
700C
600C
E00C
E00C
C01C
C01C
C018
C038
C030
C070
4060
21C0
1F00
ENDCHAR

STARTCHAR char212
ENCODING 212
SWIDTH 24 0
DWIDTH 17 0
BBX 14 22 2 0
BITMAP
01E0
0330
0410
0000
03E0
0E30
1C18
380C
300C
700C
600C
E00C
E00C
C01C
C01C
C018
C038
C030
C070
4060
21C0
1F00
ENDCHAR

STARTCHAR char213
ENCODING 213
SWIDTH 24 0
DWIDTH 17 0
BBX 14 23 2 0
BITMAP
01C4
03F8
0470
0000
0000
03E0
0630
1C18
380C
300C
700C
600C
E00C
E00C
C01C
C01C
C018
C038
C030
C070
4060
21C0
1F00
ENDCHAR

STARTCHAR char214
ENCODING 214
SWIDTH 24 0
DWIDTH 17 0
BBX 15 22 2 0
BITMAP
018C
018C
018C
0000
03E0
0E30
1C08
380C
300C
700E
600E
E00E
E00C
C00C
C01C
C018
C030
C030
C060
4040
2180
1F00
ENDCHAR

STARTCHAR char215
ENCODING 215
SWIDTH 16 0
DWIDTH 25 0
BBX 0 0 0 0
BITMAP
ENDCHAR

STARTCHAR char216
ENCODING 216
SWIDTH 24 0
DWIDTH 17 0
BBX 16 21 1 -2
BITMAP
0002
01F2
071C
0C0C
1C0C
1816
3026
7066
7046
6086
E10E
C30E
C20C
C41C
C818
F838
7070
30E0
7F80
8000
8000
ENDCHAR

STARTCHAR char217
ENCODING 217
SWIDTH 24 0
DWIDTH 17 0
BBX 17 22 2 0
BITMAP
01C000
006000
001000
000000
7F0F80
1C0600
180200
180400
380400
380400
300C00
700800
700800
600800
601000
E01000
C01000
C02000
C02000
E04000
708000
3F0000
ENDCHAR

STARTCHAR char218
ENCODING 218
SWIDTH 24 0
DWIDTH 17 0
BBX 17 22 2 0
BITMAP
007000
00C000
008000
000000
7F0F80
1C0600
180200
180400
380400
380400
300C00
700800
700800
600800
601000
E01000
C01000
C02000
C02000
E04000
708000
3F0000
ENDCHAR

STARTCHAR char219
ENCODING 219
SWIDTH 24 0
DWIDTH 17 0
BBX 17 22 2 0
BITMAP
01E000
032000
041000
000000
7F0F80
1C0600
180200
180400
380400
380400
300C00
700800
700800
600800
601000
E01000
C01000
C02000
C02000
E04000
708000
3F0000
ENDCHAR

STARTCHAR char220
ENCODING 220
SWIDTH 24 0
DWIDTH 17 0
BBX 17 22 2 0
BITMAP
018C00
018C00
018C00
000000
7F0F80
1C0200
1C0200
180400
380400
380400
300800
700800
700800
600800
601000
E01000
C01000
C01000
C02000
E04000
708000
3F0000
ENDCHAR

STARTCHAR char221
ENCODING 221
SWIDTH 16 0
DWIDTH 25 0
BBX 0 0 0 0
BITMAP
ENDCHAR

STARTCHAR char222
ENCODING 222
SWIDTH 16 0
DWIDTH 25 0
BBX 0 0 0 0
BITMAP
ENDCHAR

STARTCHAR char223
ENCODING 223
SWIDTH 6 0
DWIDTH 12 0
BBX 18 22 -6 -4
BITMAP
000F00
001880
0030C0
0020C0
0060C0
006180
004380
004E00
00C600
008300
008300
018380
018300
010300
010300
036700
036600
023C00
060000
4C0000
C80000
700000
ENDCHAR

STARTCHAR char224
ENCODING 224
SWIDTH 6 0
DWIDTH 12 0
BBX 12 18 0 0
BITMAP
0380
0180
00C0
0040
0000
0000
0010
07F0
1860
3060
3060
60C0
60C0
C0C0
C1C0
C390
E5E0
79C0
ENDCHAR

STARTCHAR char225
ENCODING 225
SWIDTH 6 0
DWIDTH 12 0
BBX 12 18 0 0
BITMAP
0060
0060
00C0
0080
0000
0000
0010
07F0
1860
3060
3060
60C0
60C0
C0C0
C1C0
C390
E5E0
79C0
ENDCHAR

STARTCHAR char226
ENCODING 226
SWIDTH 6 0
DWIDTH 12 0
BBX 12 18 0 0
BITMAP
00E0
01E0
0320
0210
0000
0000
0010
07F0
1860
3060
3060
60C0
60C0
C0C0
C1C0
C390
E5E0
79C0
ENDCHAR

STARTCHAR char227
ENCODING 227
SWIDTH 6 0
DWIDTH 12 0
BBX 14 17 0 0
BITMAP
03C8
07F0
0800
0000
0000
0010
07F0
1860
3060
3060
60C0
60C0
C0C0
C1C0
C3A0
E5E0
7980
ENDCHAR

STARTCHAR char228
ENCODING 228
SWIDTH 6 0
DWIDTH 12 0
BBX 12 17 0 0
BITMAP
0730
0730
0330
0000
0000
0020
07E0
1C60
1840
3040
60C0
60C0
C180
C180
C3A0
E5E0
7980
ENDCHAR

STARTCHAR char229
ENCODING 229
SWIDTH 6 0
DWIDTH 12 0
BBX 11 18 1 0
BITMAP
0380
0240
0240
0380
0000
0000
0020
0F40
18C0
30C0
20C0
6180
4180
C380
C300
C740
CB40
7380
ENDCHAR

STARTCHAR char230
ENCODING 230
SWIDTH 24 0
DWIDTH 17 0
BBX 17 11 0 0
BITMAP
0FFF00
18F180
30E180
60C300
608E00
C1F000
C1C000
C3C000
C5C100
ECE600
707800
ENDCHAR

STARTCHAR char231
ENCODING 231
SWIDTH 32 0
DWIDTH 9 0
BBX 11 16 0 -5
BITMAP
07E0
0C60
1840
3000
3000
6000
6000
6000
7040
3980
1E00
1000
3800
1800
1800
F000
ENDCHAR

STARTCHAR char232
ENCODING 232
SWIDTH 35 0
DWIDTH 10 0
BBX 10 18 1 0
BITMAP
0E00
0600
0300
0100
0000
0000
0000
0FC0
10C0
30C0
6180
4600
F800
C000
C000
C180
6700
3800
ENDCHAR

STARTCHAR char233
ENCODING 233
SWIDTH 35 0
DWIDTH 10 0
BBX 10 18 1 0
BITMAP
0180
0300
0300
0200
0000
0000
0000
0F80
1180
2180
6300
4600
F800
C000
C000
C100
6600
3800
ENDCHAR

STARTCHAR char234
ENCODING 234
SWIDTH 35 0
DWIDTH 10 0
BBX 10 18 1 0
BITMAP
0300
0780
0C80
18C0
0000
0000
0000
0F80
1180
2180
6300
4600
F800
C000
C000
C100
6600
3800
ENDCHAR

STARTCHAR char235
ENCODING 235
SWIDTH 35 0
DWIDTH 10 0
BBX 10 17 1 0
BITMAP
18C0
18C0
18C0
0000
0000
0000
0F80
1080
2080
6100
4E00
F000
C000
C000
C100
6600
3800
ENDCHAR

STARTCHAR char236
ENCODING 236
SWIDTH 21 0
DWIDTH 6 0
BBX 7 18 1 0
BITMAP
1C
0C
04
04
00
00
78
38
18
30
30
30
60
60
60
60
D0
E0
ENDCHAR

STARTCHAR char237
ENCODING 237
SWIDTH 21 0
DWIDTH 6 0
BBX 8 18 1 0
BITMAP
07
06
04
08
00
00
78
18
18
30
30
30
60
60
60
60
D0
E0
ENDCHAR

STARTCHAR char238
ENCODING 238
SWIDTH 21 0
DWIDTH 6 0
BBX 8 18 1 0
BITMAP
06
0F
19
21
00
00
78
18
18
30
30
30
60
60
60
60
D0
E0
ENDCHAR

STARTCHAR char239
ENCODING 239
SWIDTH 21 0
DWIDTH 6 0
BBX 8 17 1 0
BITMAP
33
33
33
00
00
78
18
10
10
30
20
20
60
60
40
D0
E0
ENDCHAR

STARTCHAR char241
ENCODING 241
SWIDTH 6 0
DWIDTH 12 0
BBX 14 17 0 0
BITMAP
03C8
07F0
08E0
0000
0000
0C40
19E0
1A60
1C60
1460
3840
30C0
30C0
60C0
6180
61E0
4180
ENDCHAR

STARTCHAR char242
ENCODING 242
SWIDTH 6 0
DWIDTH 12 0
BBX 10 18 1 0
BITMAP
0700
0300
0100
0080
0000
0000
0000
1F80
30C0
60C0
60C0
C0C0
C0C0
C180
C180
C300
4600
3800
ENDCHAR

STARTCHAR char243
ENCODING 243
SWIDTH 6 0
DWIDTH 12 0
BBX 11 18 1 0
BITMAP
00C0
0180
0180
0100
0000
0000
0000
1F80
30C0
60C0
60C0
C0C0
C0C0
C180
C180
C300
4600
3800
ENDCHAR

STARTCHAR char244
ENCODING 244
SWIDTH 6 0
DWIDTH 12 0
BBX 11 18 1 0
BITMAP
0180
03C0
0640
0840
0000
0000
0000
1F80
30C0
60C0
60C0
C0C0
C0C0
C180
C180
C300
4600
3800
ENDCHAR

STARTCHAR char245
ENCODING 245
SWIDTH 6 0
DWIDTH 12 0
BBX 12 17 1 0
BITMAP
0710
1FE0
1000
0000
0000
0000
1F80
30C0
60C0
60C0
C0C0
C0C0
C180
C180
C300
4600
3800
ENDCHAR

STARTCHAR char246
ENCODING 246
SWIDTH 6 0
DWIDTH 12 0
BBX 11 17 1 0
BITMAP
0C60
0CE0
0C60
0000
0000
0000
1F80
30C0
60C0
60C0
E0C0
C0C0
C180
C180
C300
4600
3C00
ENDCHAR

STARTCHAR char247
ENCODING 247
SWIDTH 10 0
DWIDTH 13 0
BBX 13 9 -1 2
BITMAP
0300
0300
0300
0000
FFF8
0000
0300
0300
0300
ENDCHAR

STARTCHAR char248
ENCODING 248
SWIDTH 6 0
DWIDTH 12 0
BBX 10 14 1 -1
BITMAP
0080
0080
0F80
3180
62C0
62C0
E4C0
C8C0
C980
D180
E100
6200
7C00
4000
ENDCHAR

STARTCHAR char249
ENCODING 249
SWIDTH 6 0
DWIDTH 12 0
BBX 11 18 1 0
BITMAP
0300
0180
0180
0080
0000
0000
3060
7060
B040
30C0
20C0
60C0
6180
6380
C580
C940
D340
E380
ENDCHAR

STARTCHAR char250
ENCODING 250
SWIDTH 6 0
DWIDTH 12 0
BBX 11 18 1 0
BITMAP
00E0
00C0
0080
0100
0000
0000
3060
7060
B040
30C0
20C0
60C0
6180
6380
C580
C940
D340
E380
ENDCHAR

STARTCHAR char251
ENCODING 251
SWIDTH 6 0
DWIDTH 12 0
BBX 11 18 1 0
BITMAP
01C0
03C0
0660
0C20
0000
0000
3060
7060
B040
30C0
20C0
60C0
6180
6380
C580
C940
D340
E380
ENDCHAR

STARTCHAR char252
ENCODING 252
SWIDTH 6 0
DWIDTH 12 0
BBX 11 17 1 0
BITMAP
0C60
0E60
0C60
0000
0000
3060
7060
B040
30C0
20C0
6080
6180
6380
C580
C940
D3C0
E300
ENDCHAR

STARTCHAR char255
ENCODING 255
SWIDTH 35 0
DWIDTH 10 0
BBX 14 21 -3 -4
BITMAP
00CC
00CC
00CC
0000
0000
1C10
0E10
0608
0608
0710
0710
0320
0320
0340
03C0
0300
0300
0200
0400
D800
6000
ENDCHAR
ENDFONT
